<svg xmlns="http://www.w3.org/2000/svg" viewBox="12 70 165 140">
  <g fill="none">
    <path stroke="#fff" stroke-width=".52916" d="M105.436457 119.32708183a10.18645847 9.4706325 0 0 0-9.91567304 7.40833324h5.81463143v10.72285857a10.18645847 9.4706325 0 0 0 4.10104162.81028645 10.18645847 9.4706325 0 0 0 10.1864582-9.47073913 10.18645847 9.4706325 0 0 0-10.1864582-9.47073913z" paint-order="markers stroke fill"/>
    <path stroke="#fefefe" stroke-width=".52916" d="M74.87708239 118.25634484 64.02916586 132.8570055h19.04999976v-4.76094948l-8.20208323-9.83971117z"/>
    <path stroke="#fff" stroke-width=".529167" d="M62.706249 103.1875h33.072918v5.8208332H62.706249z" paint-order="markers stroke fill"/>
    <path stroke="#fff" stroke-width=".52916" d="M83.07916562 126.73541507v18.25624977h18.25624977v-18.25624977H83.07916562z" paint-order="markers stroke fill"/>
    <path stroke="#fff" stroke-width=".529167" d="m114.69683 125.41237 5.17741-6.47995 3.03483 4.76277m-3.03484-4.76276-5.1774 6.47994 8.21224-1.71718 22.6659-13.8259-3.29632-4.85348zM57.679166 97.895832v51.858328h73.025004v-30.81362l14.87092-9.07128-3.29644-4.85345-11.57448 7.18974V97.895832Z"/>
  </g>
</svg>
