<svg xmlns="http://www.w3.org/2000/svg" viewBox="50 70 75 110">
  <path fill="none" stroke="#fff" stroke-width=".529167" d="M97.089089 122.77537a1.1929874 1.1975878 0 0 1-1.192986 1.19759 1.1929874 1.1975878 0 0 1-1.192987-1.19759 1.1929874 1.1975878 0 0 1 1.192987-1.19759 1.1929874 1.1975878 0 0 1 1.192986 1.19759zm-.000009-5.83824a1.1929874 1.1975878 0 0 1-1.192986 1.19759 1.1929874 1.1975878 0 0 1-1.192987-1.19759 1.1929874 1.1975878 0 0 1 1.192987-1.19759 1.1929874 1.1975878 0 0 1 1.192986 1.19759zm4.32457 0a1.1929874 1.1975878 0 0 1-1.19298 1.19759 1.1929874 1.1975878 0 0 1-1.192985-1.19759 1.1929874 1.1975878 0 0 1 1.192985-1.19759 1.1929874 1.1975878 0 0 1 1.19298 1.19759zm-.0746 5.83824a1.1929874 1.1975878 0 0 1-1.19298 1.19759 1.1929874 1.1975878 0 0 1-1.192987-1.19759 1.1929874 1.1975878 0 0 1 1.192987-1.19759 1.1929874 1.1975878 0 0 1 1.19298 1.19759zm-31.092227-2.91912h33.403647v5.68854h-33.4036zm0-5.68855h33.403647v5.68855h-33.4036Zm10.631715-20.850261a12.378603 12.644976 0 0 0-12.378417 12.645251 12.378603 12.644976 0 0 0 .324973 2.86796 10.856304 11.090589 0 0 0-5.665479-1.63058 10.856304 11.090589 0 0 0-10.856348 11.09058 10.856304 11.090589 0 0 0 10.856348 11.0906 10.856304 11.090589 0 0 0 .671501-.0255v.0255h47.771914v-.0173a7.6969172 7.8646074 0 0 0 .46051.0173 7.6969172 7.8646074 0 0 0 7.69698-7.8645 7.6969172 7.8646074 0 0 0-7.2091-7.84799 10.442527 10.668091 0 0 0 .17866-1.92682 10.442527 10.668091 0 0 0-10.44227-10.66811 10.442527 10.668091 0 0 0-9.04702 5.34065 12.378603 12.644976 0 0 0 .01656-.45179 12.378603 12.644976 0 0 0-12.378833-12.645251z" paint-order="markers stroke fill"/>
</svg>
