<svg xmlns="http://www.w3.org/2000/svg" viewBox="35 95 140 130">
  <g fill="none" stroke="#fff" stroke-width=".529167">
    <path d="M118.56019104 171.171922a26.458334.001 58.969327 0 1-6.82033642-11.33551372 26.458334.001 58.969327 0 1-13.63918866-22.67192032 26.458334.001 58.969327 0 1-6.81885224-11.33640659"/>
    <path d="M115.34909243 172.81662925a26.458334 7.4110403 66.788117 0 1-11.11266817-9.62871245 26.458334 7.4110403 66.788117 0 1-10.42809014-24.31662753 26.458334 7.4110403 66.788117 0 1 .6845782-14.68791514"/>
    <path d="M111.30463335 174.17669723a26.458334 14.095734 76.038427 0 1-15.03844859-9.89308818 26.458334 14.095734 76.038427 0 1-6.38363096-25.67669553 26.458334 14.095734 76.038427 0 1 8.65481762-15.78360737"/>
    <path d="M105.31109178 174.95545988a19.400738 26.458334-.844773 0 1-16.9947505-12.9800151 19.400738 26.458334-.844773 0 1-.39008941-26.4554582 19.400738 26.458334-.844773 0 1 16.6046611-13.47544309"/>
    <path d="M95.26038109 173.13160404a22.806759 26.458334 21.415327 0 1-13.55726026-19.52748625 22.806759 26.458334 21.415327 0 1 9.66062036-24.63160272 22.806759 26.458334 21.415327 0 1 23.21788248-5.10411573"/>
    <path d="M82.24908207 162.13919035a23.980394 26.458334 58.969327 0 1 .63031114-24.61519988 23.980394 26.458334 58.969327 0 1 22.67192032-13.63918865 23.980394 26.458334 58.969327 0 1 22.04160917 10.97601121"/>
    <path d="M78.63396798 145.49413068a26.458334 22.806759 6.523327 0 1 28.8780583-19.65322984 26.458334 22.806759 6.523327 0 1 23.6960105 25.66497185"/>
    <path d="M81.73170158 135.76030912a26.458334 19.400738 28.783427 0 1 32.53075963-4.2640065 26.458334 19.400738 28.783427 0 1 13.84784197 29.74339163"/>
    <path d="M85.2278289 130.83018686a26.458334 14.095734 41.900227 0 1 29.1068051 7.17823456 26.458334 14.095734 41.900227 0 1 10.27954187 28.1613951"/>
    <path d="M88.32431456 127.89433762a26.458334 7.4110403 51.150537 0 1 22.3683818 15.95689358 26.458334 7.4110403 51.150537 0 1 10.82499384 25.25443455"/>
    <g>
      <path d="M126.01619389 164.47097502a14.304455 6.0463238-31.030673 0 1-16.86928369 10.14838353M130.44963906 155.45324574a19.995874 8.451622-31.030673 0 1-13.07692035 13.74478481 19.995874 8.451622-31.030673 0 1-18.2697029 5.11301384"/>
      <path d="M131.3228156 146.77002252a24.067347 10.1723-31.030673 0 1-16.02295366 18.98237465 24.067347 10.1723-31.030673 0 1-24.27714333 5.26173957"/>
      <path d="M129.4534169 138.59017912a26.189026 11.06896-31.030673 0 1-17.06720313 22.31896815 26.189026 11.06896-31.030673 0 1-27.71411391 4.62100102"/>
      <path d="M125.16990602 131.469855a26.189026 11.06896-31.030673 0 1-5.47919547 15.20199542 26.189026 11.06896-31.030673 0 1-23.30478017 14.01991026 26.189026 11.06896-31.030673 0 1-15.99734252-2.28193643"/>
      <path d="M118.81928615 125.98586664a24.067347 10.1723-31.030673 0 1-3.12942561 14.24087167 24.067347 10.1723-31.030673 0 1-23.12336088 13.9107702 24.067347 10.1723-31.030673 0 1-14.04731049-3.90752765"/>
      <path d="M110.7389881 122.6889595a19.995874 8.451622-31.030673 0 1 .05862575 11.72817357 19.995874 8.451622-31.030673 0 1-21.071462 12.67637013 19.995874 8.451622-31.030673 0 1-10.33378614-5.54674556"/>
      <path d="M100.69509413 122.38064509a14.304455 6.0463238-31.030673 0 1 6.36690823 3.9032466 14.304455 6.0463238-31.030673 0 1-9.42312904 10.11129541 14.304455 6.0463238-31.030673 0 1-13.34780114 3.58745772 14.304455 6.0463238-31.030673 0 1-.46526165-7.45361625"/>
      <path d="M99.44783721 124.94198823a7.454174 3.1512699-31.030673 0 1-4.76294866 6.54289893 7.454174 3.1512699-31.030673 0 1-8.01188734 1.14230797 7.454174 3.1512699-31.030673 0 1 4.76294814-6.54289978 7.454174 3.1512699-31.030673 0 1 8.01188786-1.14230712z"/>
    </g>
    <path d="M127.5929227 134.86081303a26.458334 26.458334 0 0 1-9.03273166 36.31110897 26.458334 26.458334 0 0 1-36.31110897-9.03273165 26.458334 26.458334 0 0 1 9.03273165-36.31110898 26.458334 26.458334 0 0 1 36.31110898 9.03273166Z"/>
  </g>
</svg>
